<?xml version="1.0" encoding="utf-8" ?>
<svg baseProfile="tiny" height="320mm" version="1.2" width="320mm" xmlns="http://www.w3.org/2000/svg" xmlns:ev="http://www.w3.org/2001/xml-events" xmlns:xlink="http://www.w3.org/1999/xlink">
  <defs/>
  <circle cx="160mm" cy="160mm" fill="white" r="160mm" stroke="black"/>
  <line stroke="red" stroke-width="4mm" x1="320.0mm" x2="315.0mm" y1="160.0mm" y2="160.0mm"/>
  <line stroke="black" stroke-width="1mm" x1="319.39115169467925mm" x2="314.41017820422053mm" y1="173.9449188396253mm" y2="173.50914012588703mm"/>
  <line stroke="black" stroke-width="1mm" x1="317.5692404819533mm" x2="312.64520171689225mm" y1="187.78370842670884mm" y2="186.9154675383742mm"/>
  <line stroke="black" stroke-width="1mm" x1="314.5481322062509mm" x2="309.7185030748056mm" y1="201.41104721640332mm" y2="200.1169519908907mm"/>
  <line stroke="black" stroke-width="1mm" x1="310.35081932574536mm" x2="305.6523562218158mm" y1="214.72322293210698mm" y2="213.01312221547866mm"/>
  <line stroke="black" stroke-width="1mm" x1="305.009245925864mm" x2="300.47770699068076mm" y1="227.6189218785119mm" y2="225.5058305698084mm"/>
  <line stroke="black" stroke-width="1mm" x1="298.5640646055102mm" x2="294.233937586588mm" y1="240.0mm" y2="237.5mm"/>
  <line stroke="black" stroke-width="1mm" x1="291.0643270862387mm" x2="286.96856686479373mm" y1="251.77222981616737mm" y2="248.90434763441215mm"/>
  <line stroke="black" stroke-width="1mm" x1="282.5671108990365mm" x2="278.7368886834416mm" y1="262.8460175498463mm" y2="259.6320795014136mm"/>
  <line stroke="black" stroke-width="1mm" x1="273.1370849898476mm" x2="269.60155108391484mm" y1="273.1370849898476mm" y2="269.60155108391484mm"/>
  <line stroke="black" stroke-width="1mm" x1="262.8460175498463mm" x2="259.6320795014136mm" y1="282.5671108990365mm" y2="278.7368886834416mm"/>
  <line stroke="black" stroke-width="1mm" x1="251.77222981616737mm" x2="248.90434763441215mm" y1="291.0643270862387mm" y2="286.96856686479373mm"/>
  <line stroke="black" stroke-width="1mm" x1="240.0mm" x2="237.5mm" y1="298.56406460551017mm" y2="294.233937586588mm"/>
  <line stroke="black" stroke-width="1mm" x1="227.6189218785119mm" x2="225.5058305698084mm" y1="305.009245925864mm" y2="300.47770699068076mm"/>
  <line stroke="black" stroke-width="1mm" x1="214.723222932107mm" x2="213.01312221547866mm" y1="310.3508193257453mm" y2="305.6523562218158mm"/>
  <line stroke="black" stroke-width="1mm" x1="201.41104721640332mm" x2="200.1169519908907mm" y1="314.5481322062509mm" y2="309.7185030748056mm"/>
  <line stroke="black" stroke-width="1mm" x1="187.78370842670887mm" x2="186.91546753837423mm" y1="317.5692404819533mm" y2="312.64520171689225mm"/>
  <line stroke="black" stroke-width="1mm" x1="173.9449188396253mm" x2="173.509140125887mm" y1="319.39115169467925mm" y2="314.41017820422053mm"/>
  <line stroke="black" stroke-width="1mm" x1="160.0mm" x2="160.0mm" y1="320.0mm" y2="315.0mm"/>
  <line stroke="black" stroke-width="1mm" x1="146.05508116037467mm" x2="146.49085987411297mm" y1="319.39115169467925mm" y2="314.41017820422053mm"/>
  <line stroke="black" stroke-width="1mm" x1="132.21629157329116mm" x2="133.0845324616258mm" y1="317.5692404819533mm" y2="312.64520171689225mm"/>
  <line stroke="black" stroke-width="1mm" x1="118.58895278359667mm" x2="119.88304800910927mm" y1="314.5481322062509mm" y2="309.7185030748056mm"/>
  <line stroke="black" stroke-width="1mm" x1="105.27677706789301mm" x2="106.98687778452134mm" y1="310.35081932574536mm" y2="305.6523562218158mm"/>
  <line stroke="black" stroke-width="1mm" x1="92.3810781214881mm" x2="94.4941694301916mm" y1="305.009245925864mm" y2="300.47770699068076mm"/>
  <line stroke="black" stroke-width="1mm" x1="80.00000000000003mm" x2="82.50000000000003mm" y1="298.5640646055102mm" y2="294.233937586588mm"/>
  <line stroke="black" stroke-width="1mm" x1="68.22777018383266mm" x2="71.0956523655879mm" y1="291.06432708623873mm" y2="286.96856686479373mm"/>
  <line stroke="black" stroke-width="1mm" x1="57.153982450153705mm" x2="60.3679204985864mm" y1="282.5671108990365mm" y2="278.7368886834416mm"/>
  <line stroke="black" stroke-width="1mm" x1="46.862915010152406mm" x2="50.398448916085144mm" y1="273.1370849898476mm" y2="269.60155108391484mm"/>
  <line stroke="black" stroke-width="1mm" x1="37.432889100963536mm" x2="41.26311131655842mm" y1="262.84601754984635mm" y2="259.6320795014136mm"/>
  <line stroke="black" stroke-width="1mm" x1="28.93567291376135mm" x2="33.0314331352063mm" y1="251.77222981616742mm" y2="248.9043476344122mm"/>
  <line stroke="black" stroke-width="1mm" x1="21.435935394489803mm" x2="25.766062413411987mm" y1="240.0mm" y2="237.5mm"/>
  <line stroke="black" stroke-width="1mm" x1="14.99075407413602mm" x2="19.52229300931927mm" y1="227.6189218785119mm" y2="225.50583056980844mm"/>
  <line stroke="black" stroke-width="1mm" x1="9.649180674254666mm" x2="14.34764377818422mm" y1="214.72322293210703mm" y2="213.0131222154787mm"/>
  <line stroke="black" stroke-width="1mm" x1="5.451867793749102mm" x2="10.281496925194432mm" y1="201.41104721640335mm" y2="200.11695199089075mm"/>
  <line stroke="black" stroke-width="1mm" x1="2.4307595180467274mm" x2="7.354798283107755mm" y1="187.78370842670884mm" y2="186.9154675383742mm"/>
  <line stroke="black" stroke-width="1mm" x1="0.6088483053207199mm" x2="5.589821795779443mm" y1="173.9449188396254mm" y2="173.5091401258871mm"/>
  <line stroke="black" stroke-width="1mm" x1="0.0mm" x2="5.0mm" y1="160.00000000000003mm" y2="160.00000000000003mm"/>
  <line stroke="black" stroke-width="1mm" x1="0.6088483053207199mm" x2="5.589821795779443mm" y1="146.05508116037473mm" y2="146.49085987411303mm"/>
  <line stroke="black" stroke-width="1mm" x1="2.4307595180467274mm" x2="7.354798283107755mm" y1="132.21629157329113mm" y2="133.08453246162577mm"/>
  <line stroke="black" stroke-width="1mm" x1="5.451867793749045mm" x2="10.281496925194404mm" y1="118.58895278359674mm" y2="119.88304800910934mm"/>
  <line stroke="black" stroke-width="1mm" x1="9.649180674254637mm" x2="14.347643778184192mm" y1="105.27677706789302mm" y2="106.98687778452137mm"/>
  <line stroke="black" stroke-width="1mm" x1="14.990754074135992mm" x2="19.52229300931924mm" y1="92.38107812148812mm" y2="94.49416943019162mm"/>
  <line stroke="black" stroke-width="1mm" x1="21.43593539448983mm" x2="25.766062413412016mm" y1="79.99999999999999mm" y2="82.49999999999999mm"/>
  <line stroke="black" stroke-width="1mm" x1="28.935672913761266mm" x2="33.03143313520624mm" y1="68.22777018383266mm" y2="71.0956523655879mm"/>
  <line stroke="black" stroke-width="1mm" x1="37.43288910096352mm" x2="41.26311131655841mm" y1="57.15398245015372mm" y2="60.367920498586415mm"/>
  <line stroke="black" stroke-width="1mm" x1="46.86291501015236mm" x2="50.398448916085115mm" y1="46.862915010152406mm" y2="50.398448916085144mm"/>
  <line stroke="black" stroke-width="1mm" x1="57.15398245015368mm" x2="60.367920498586386mm" y1="37.432889100963536mm" y2="41.26311131655842mm"/>
  <line stroke="black" stroke-width="1mm" x1="68.22777018383258mm" x2="71.09565236558781mm" y1="28.93567291376135mm" y2="33.0314331352063mm"/>
  <line stroke="black" stroke-width="1mm" x1="79.99999999999993mm" x2="82.49999999999993mm" y1="21.43593539448983mm" y2="25.766062413412044mm"/>
  <line stroke="black" stroke-width="1mm" x1="92.381078121488mm" x2="94.4941694301915mm" y1="14.99075407413605mm" y2="19.5222930093193mm"/>
  <line stroke="black" stroke-width="1mm" x1="105.27677706789291mm" x2="106.98687778452125mm" y1="9.649180674254694mm" y2="14.34764377818422mm"/>
  <line stroke="black" stroke-width="1mm" x1="118.5889527835967mm" x2="119.8830480091093mm" y1="5.451867793749074mm" y2="10.281496925194404mm"/>
  <line stroke="black" stroke-width="1mm" x1="132.21629157329116mm" x2="133.0845324616258mm" y1="2.4307595180467274mm" y2="7.354798283107755mm"/>
  <line stroke="black" stroke-width="1mm" x1="146.05508116037467mm" x2="146.49085987411297mm" y1="0.6088483053207199mm" y2="5.589821795779443mm"/>
  <line stroke="black" stroke-width="1mm" x1="159.99999999999997mm" x2="159.99999999999997mm" y1="0.0mm" y2="5.0mm"/>
  <line stroke="black" stroke-width="1mm" x1="173.94491883962527mm" x2="173.50914012588697mm" y1="0.6088483053207199mm" y2="5.589821795779443mm"/>
  <line stroke="black" stroke-width="1mm" x1="187.78370842670878mm" x2="186.91546753837414mm" y1="2.430759518046699mm" y2="7.354798283107726mm"/>
  <line stroke="black" stroke-width="1mm" x1="201.41104721640338mm" x2="200.11695199089078mm" y1="5.451867793749102mm" y2="10.281496925194432mm"/>
  <line stroke="black" stroke-width="1mm" x1="214.72322293210692mm" x2="213.01312221547857mm" y1="9.649180674254637mm" y2="14.347643778184164mm"/>
  <line stroke="black" stroke-width="1mm" x1="227.61892187851194mm" x2="225.50583056980844mm" y1="14.99075407413602mm" y2="19.52229300931927mm"/>
  <line stroke="black" stroke-width="1mm" x1="240.0mm" x2="237.5mm" y1="21.43593539448983mm" y2="25.766062413412016mm"/>
  <line stroke="black" stroke-width="1mm" x1="251.77222981616737mm" x2="248.90434763441215mm" y1="28.935672913761323mm" y2="33.03143313520627mm"/>
  <line stroke="black" stroke-width="1mm" x1="262.8460175498463mm" x2="259.6320795014136mm" y1="37.43288910096351mm" y2="41.263111316558394mm"/>
  <line stroke="black" stroke-width="1mm" x1="273.1370849898476mm" x2="269.60155108391484mm" y1="46.86291501015236mm" y2="50.398448916085115mm"/>
  <line stroke="black" stroke-width="1mm" x1="282.56711089903644mm" x2="278.7368886834416mm" y1="57.15398245015366mm" y2="60.36792049858636mm"/>
  <line stroke="black" stroke-width="1mm" x1="291.0643270862387mm" x2="286.96856686479373mm" y1="68.22777018383256mm" y2="71.0956523655878mm"/>
  <line stroke="black" stroke-width="1mm" x1="298.5640646055101mm" x2="294.23393758658796mm" y1="79.99999999999993mm" y2="82.49999999999993mm"/>
  <line stroke="black" stroke-width="1mm" x1="305.009245925864mm" x2="300.4777069906807mm" y1="92.381078121488mm" y2="94.4941694301915mm"/>
  <line stroke="black" stroke-width="1mm" x1="310.35081932574536mm" x2="305.6523562218158mm" y1="105.27677706789302mm" y2="106.98687778452137mm"/>
  <line stroke="black" stroke-width="1mm" x1="314.5481322062509mm" x2="309.7185030748056mm" y1="118.58895278359668mm" y2="119.8830480091093mm"/>
  <line stroke="black" stroke-width="1mm" x1="317.5692404819533mm" x2="312.6452017168922mm" y1="132.216291573291mm" y2="133.08453246162566mm"/>
  <line stroke="black" stroke-width="1mm" x1="319.39115169467925mm" x2="314.41017820422053mm" y1="146.05508116037467mm" y2="146.49085987411297mm"/>
  <text font-size="6mm" x="140.0mm" y="35.0mm">0</text>
  <circle cx="160.0mm" cy="25.0mm" fill="black" r="10.0mm"/>
  <circle cx="160.0mm" cy="25.0mm" fill="white" r="9.0mm"/>
  <circle cx="160.0mm" cy="25.0mm" fill="black" r="8.0mm"/>
  <circle cx="160.0mm" cy="25.0mm" fill="white" r="7.0mm"/>
  <circle cx="160.0mm" cy="25.0mm" fill="black" r="6.0mm"/>
  <circle cx="160.0mm" cy="25.0mm" fill="white" r="5.0mm"/>
  <text font-size="6mm" x="60.0mm" y="80.0mm">1</text>
  <circle cx="80.0mm" cy="70.0mm" fill="black" r="10.0mm"/>
  <circle cx="80.0mm" cy="70.0mm" fill="white" r="9.0mm"/>
  <circle cx="80.0mm" cy="70.0mm" fill="black" r="8.0mm"/>
  <circle cx="80.0mm" cy="70.0mm" fill="white" r="7.0mm"/>
  <circle cx="80.0mm" cy="70.0mm" fill="black" r="6.0mm"/>
  <circle cx="80.0mm" cy="70.0mm" fill="white" r="4.5mm"/>
  <text font-size="6mm" x="100.0mm" y="80.0mm">2</text>
  <circle cx="120.0mm" cy="70.0mm" fill="black" r="10.0mm"/>
  <circle cx="120.0mm" cy="70.0mm" fill="white" r="9.0mm"/>
  <circle cx="120.0mm" cy="70.0mm" fill="black" r="8.0mm"/>
  <circle cx="120.0mm" cy="70.0mm" fill="white" r="7.0mm"/>
  <circle cx="120.0mm" cy="70.0mm" fill="black" r="5.5mm"/>
  <circle cx="120.0mm" cy="70.0mm" fill="white" r="4.5mm"/>
  <text font-size="6mm" x="140.0mm" y="80.0mm">3</text>
  <circle cx="160.0mm" cy="70.0mm" fill="black" r="10.0mm"/>
  <circle cx="160.0mm" cy="70.0mm" fill="white" r="9.0mm"/>
  <circle cx="160.0mm" cy="70.0mm" fill="black" r="8.0mm"/>
  <circle cx="160.0mm" cy="70.0mm" fill="white" r="7.0mm"/>
  <circle cx="160.0mm" cy="70.0mm" fill="black" r="5.5mm"/>
  <circle cx="160.0mm" cy="70.0mm" fill="white" r="4.0mm"/>
  <text font-size="6mm" x="180.0mm" y="80.0mm">4</text>
  <circle cx="200.0mm" cy="70.0mm" fill="black" r="10.0mm"/>
  <circle cx="200.0mm" cy="70.0mm" fill="white" r="9.0mm"/>
  <circle cx="200.0mm" cy="70.0mm" fill="black" r="8.0mm"/>
  <circle cx="200.0mm" cy="70.0mm" fill="white" r="6.5mm"/>
  <circle cx="200.0mm" cy="70.0mm" fill="black" r="5.5mm"/>
  <circle cx="200.0mm" cy="70.0mm" fill="white" r="4.5mm"/>
  <text font-size="6mm" x="220.0mm" y="80.0mm">5</text>
  <circle cx="240.0mm" cy="70.0mm" fill="black" r="10.0mm"/>
  <circle cx="240.0mm" cy="70.0mm" fill="white" r="9.0mm"/>
  <circle cx="240.0mm" cy="70.0mm" fill="black" r="8.0mm"/>
  <circle cx="240.0mm" cy="70.0mm" fill="white" r="6.5mm"/>
  <circle cx="240.0mm" cy="70.0mm" fill="black" r="5.5mm"/>
  <circle cx="240.0mm" cy="70.0mm" fill="white" r="4.0mm"/>
  <text font-size="6mm" x="20.0mm" y="125.0mm">6</text>
  <circle cx="40.0mm" cy="115.0mm" fill="black" r="10.0mm"/>
  <circle cx="40.0mm" cy="115.0mm" fill="white" r="9.0mm"/>
  <circle cx="40.0mm" cy="115.0mm" fill="black" r="8.0mm"/>
  <circle cx="40.0mm" cy="115.0mm" fill="white" r="6.5mm"/>
  <circle cx="40.0mm" cy="115.0mm" fill="black" r="5.0mm"/>
  <circle cx="40.0mm" cy="115.0mm" fill="white" r="4.0mm"/>
  <text font-size="6mm" x="60.0mm" y="125.0mm">7</text>
  <circle cx="80.0mm" cy="115.0mm" fill="black" r="10.0mm"/>
  <circle cx="80.0mm" cy="115.0mm" fill="white" r="9.0mm"/>
  <circle cx="80.0mm" cy="115.0mm" fill="black" r="8.0mm"/>
  <circle cx="80.0mm" cy="115.0mm" fill="white" r="6.5mm"/>
  <circle cx="80.0mm" cy="115.0mm" fill="black" r="5.0mm"/>
  <circle cx="80.0mm" cy="115.0mm" fill="white" r="3.5mm"/>
  <text font-size="6mm" x="100.0mm" y="125.0mm">8</text>
  <circle cx="120.0mm" cy="115.0mm" fill="black" r="10.0mm"/>
  <circle cx="120.0mm" cy="115.0mm" fill="white" r="9.0mm"/>
  <circle cx="120.0mm" cy="115.0mm" fill="black" r="7.5mm"/>
  <circle cx="120.0mm" cy="115.0mm" fill="white" r="6.5mm"/>
  <circle cx="120.0mm" cy="115.0mm" fill="black" r="5.5mm"/>
  <circle cx="120.0mm" cy="115.0mm" fill="white" r="4.5mm"/>
  <text font-size="6mm" x="140.0mm" y="125.0mm">9</text>
  <circle cx="160.0mm" cy="115.0mm" fill="black" r="10.0mm"/>
  <circle cx="160.0mm" cy="115.0mm" fill="white" r="9.0mm"/>
  <circle cx="160.0mm" cy="115.0mm" fill="black" r="7.5mm"/>
  <circle cx="160.0mm" cy="115.0mm" fill="white" r="6.5mm"/>
  <circle cx="160.0mm" cy="115.0mm" fill="black" r="5.5mm"/>
  <circle cx="160.0mm" cy="115.0mm" fill="white" r="4.0mm"/>
  <text font-size="6mm" x="180.0mm" y="125.0mm">10</text>
  <circle cx="200.0mm" cy="115.0mm" fill="black" r="10.0mm"/>
  <circle cx="200.0mm" cy="115.0mm" fill="white" r="9.0mm"/>
  <circle cx="200.0mm" cy="115.0mm" fill="black" r="7.5mm"/>
  <circle cx="200.0mm" cy="115.0mm" fill="white" r="6.5mm"/>
  <circle cx="200.0mm" cy="115.0mm" fill="black" r="5.0mm"/>
  <circle cx="200.0mm" cy="115.0mm" fill="white" r="4.0mm"/>
  <text font-size="6mm" x="220.0mm" y="125.0mm">11</text>
  <circle cx="240.0mm" cy="115.0mm" fill="black" r="10.0mm"/>
  <circle cx="240.0mm" cy="115.0mm" fill="white" r="9.0mm"/>
  <circle cx="240.0mm" cy="115.0mm" fill="black" r="7.5mm"/>
  <circle cx="240.0mm" cy="115.0mm" fill="white" r="6.5mm"/>
  <circle cx="240.0mm" cy="115.0mm" fill="black" r="5.0mm"/>
  <circle cx="240.0mm" cy="115.0mm" fill="white" r="3.5mm"/>
  <text font-size="6mm" x="260.0mm" y="125.0mm">12</text>
  <circle cx="280.0mm" cy="115.0mm" fill="black" r="10.0mm"/>
  <circle cx="280.0mm" cy="115.0mm" fill="white" r="9.0mm"/>
  <circle cx="280.0mm" cy="115.0mm" fill="black" r="7.5mm"/>
  <circle cx="280.0mm" cy="115.0mm" fill="white" r="6.0mm"/>
  <circle cx="280.0mm" cy="115.0mm" fill="black" r="5.0mm"/>
  <circle cx="280.0mm" cy="115.0mm" fill="white" r="4.0mm"/>
  <text font-size="6mm" x="20.0mm" y="170.0mm">13</text>
  <circle cx="40.0mm" cy="160.0mm" fill="black" r="10.0mm"/>
  <circle cx="40.0mm" cy="160.0mm" fill="white" r="9.0mm"/>
  <circle cx="40.0mm" cy="160.0mm" fill="black" r="7.5mm"/>
  <circle cx="40.0mm" cy="160.0mm" fill="white" r="6.0mm"/>
  <circle cx="40.0mm" cy="160.0mm" fill="black" r="5.0mm"/>
  <circle cx="40.0mm" cy="160.0mm" fill="white" r="3.5mm"/>
  <text font-size="6mm" x="60.0mm" y="170.0mm">14</text>
  <circle cx="80.0mm" cy="160.0mm" fill="black" r="10.0mm"/>
  <circle cx="80.0mm" cy="160.0mm" fill="white" r="9.0mm"/>
  <circle cx="80.0mm" cy="160.0mm" fill="black" r="7.5mm"/>
  <circle cx="80.0mm" cy="160.0mm" fill="white" r="6.0mm"/>
  <circle cx="80.0mm" cy="160.0mm" fill="black" r="4.5mm"/>
  <circle cx="80.0mm" cy="160.0mm" fill="white" r="3.5mm"/>
  <text font-size="6mm" x="100.0mm" y="170.0mm">15</text>
  <circle cx="120.0mm" cy="160.0mm" fill="black" r="10.0mm"/>
  <circle cx="120.0mm" cy="160.0mm" fill="white" r="9.0mm"/>
  <circle cx="120.0mm" cy="160.0mm" fill="black" r="7.5mm"/>
  <circle cx="120.0mm" cy="160.0mm" fill="white" r="6.0mm"/>
  <circle cx="120.0mm" cy="160.0mm" fill="black" r="4.5mm"/>
  <circle cx="120.0mm" cy="160.0mm" fill="white" r="3.0mm"/>
  <text font-size="6mm" x="180.0mm" y="170.0mm">16</text>
  <circle cx="200.0mm" cy="160.0mm" fill="black" r="10.0mm"/>
  <circle cx="200.0mm" cy="160.0mm" fill="white" r="8.5mm"/>
  <circle cx="200.0mm" cy="160.0mm" fill="black" r="7.5mm"/>
  <circle cx="200.0mm" cy="160.0mm" fill="white" r="6.5mm"/>
  <circle cx="200.0mm" cy="160.0mm" fill="black" r="5.5mm"/>
  <circle cx="200.0mm" cy="160.0mm" fill="white" r="4.5mm"/>
  <text font-size="6mm" x="220.0mm" y="170.0mm">17</text>
  <circle cx="240.0mm" cy="160.0mm" fill="black" r="10.0mm"/>
  <circle cx="240.0mm" cy="160.0mm" fill="white" r="8.5mm"/>
  <circle cx="240.0mm" cy="160.0mm" fill="black" r="7.5mm"/>
  <circle cx="240.0mm" cy="160.0mm" fill="white" r="6.5mm"/>
  <circle cx="240.0mm" cy="160.0mm" fill="black" r="5.5mm"/>
  <circle cx="240.0mm" cy="160.0mm" fill="white" r="4.0mm"/>
  <text font-size="6mm" x="260.0mm" y="170.0mm">18</text>
  <circle cx="280.0mm" cy="160.0mm" fill="black" r="10.0mm"/>
  <circle cx="280.0mm" cy="160.0mm" fill="white" r="8.5mm"/>
  <circle cx="280.0mm" cy="160.0mm" fill="black" r="7.5mm"/>
  <circle cx="280.0mm" cy="160.0mm" fill="white" r="6.5mm"/>
  <circle cx="280.0mm" cy="160.0mm" fill="black" r="5.0mm"/>
  <circle cx="280.0mm" cy="160.0mm" fill="white" r="4.0mm"/>
  <text font-size="6mm" x="20.0mm" y="215.0mm">19</text>
  <circle cx="40.0mm" cy="205.0mm" fill="black" r="10.0mm"/>
  <circle cx="40.0mm" cy="205.0mm" fill="white" r="8.5mm"/>
  <circle cx="40.0mm" cy="205.0mm" fill="black" r="7.5mm"/>
  <circle cx="40.0mm" cy="205.0mm" fill="white" r="6.5mm"/>
  <circle cx="40.0mm" cy="205.0mm" fill="black" r="5.0mm"/>
  <circle cx="40.0mm" cy="205.0mm" fill="white" r="3.5mm"/>
  <text font-size="6mm" x="60.0mm" y="215.0mm">20</text>
  <circle cx="80.0mm" cy="205.0mm" fill="black" r="10.0mm"/>
  <circle cx="80.0mm" cy="205.0mm" fill="white" r="8.5mm"/>
  <circle cx="80.0mm" cy="205.0mm" fill="black" r="7.5mm"/>
  <circle cx="80.0mm" cy="205.0mm" fill="white" r="6.0mm"/>
  <circle cx="80.0mm" cy="205.0mm" fill="black" r="5.0mm"/>
  <circle cx="80.0mm" cy="205.0mm" fill="white" r="4.0mm"/>
  <text font-size="6mm" x="100.0mm" y="215.0mm">21</text>
  <circle cx="120.0mm" cy="205.0mm" fill="black" r="10.0mm"/>
  <circle cx="120.0mm" cy="205.0mm" fill="white" r="8.5mm"/>
  <circle cx="120.0mm" cy="205.0mm" fill="black" r="7.5mm"/>
  <circle cx="120.0mm" cy="205.0mm" fill="white" r="6.0mm"/>
  <circle cx="120.0mm" cy="205.0mm" fill="black" r="5.0mm"/>
  <circle cx="120.0mm" cy="205.0mm" fill="white" r="3.5mm"/>
  <text font-size="6mm" x="140.0mm" y="215.0mm">22</text>
  <circle cx="160.0mm" cy="205.0mm" fill="black" r="10.0mm"/>
  <circle cx="160.0mm" cy="205.0mm" fill="white" r="8.5mm"/>
  <circle cx="160.0mm" cy="205.0mm" fill="black" r="7.5mm"/>
  <circle cx="160.0mm" cy="205.0mm" fill="white" r="6.0mm"/>
  <circle cx="160.0mm" cy="205.0mm" fill="black" r="4.5mm"/>
  <circle cx="160.0mm" cy="205.0mm" fill="white" r="3.5mm"/>
  <text font-size="6mm" x="180.0mm" y="215.0mm">23</text>
  <circle cx="200.0mm" cy="205.0mm" fill="black" r="10.0mm"/>
  <circle cx="200.0mm" cy="205.0mm" fill="white" r="8.5mm"/>
  <circle cx="200.0mm" cy="205.0mm" fill="black" r="7.5mm"/>
  <circle cx="200.0mm" cy="205.0mm" fill="white" r="6.0mm"/>
  <circle cx="200.0mm" cy="205.0mm" fill="black" r="4.5mm"/>
  <circle cx="200.0mm" cy="205.0mm" fill="white" r="3.0mm"/>
  <text font-size="6mm" x="220.0mm" y="215.0mm">24</text>
  <circle cx="240.0mm" cy="205.0mm" fill="black" r="10.0mm"/>
  <circle cx="240.0mm" cy="205.0mm" fill="white" r="8.5mm"/>
  <circle cx="240.0mm" cy="205.0mm" fill="black" r="7.0mm"/>
  <circle cx="240.0mm" cy="205.0mm" fill="white" r="6.0mm"/>
  <circle cx="240.0mm" cy="205.0mm" fill="black" r="5.0mm"/>
  <circle cx="240.0mm" cy="205.0mm" fill="white" r="4.0mm"/>
  <text font-size="6mm" x="260.0mm" y="215.0mm">25</text>
  <circle cx="280.0mm" cy="205.0mm" fill="black" r="10.0mm"/>
  <circle cx="280.0mm" cy="205.0mm" fill="white" r="8.5mm"/>
  <circle cx="280.0mm" cy="205.0mm" fill="black" r="7.0mm"/>
  <circle cx="280.0mm" cy="205.0mm" fill="white" r="6.0mm"/>
  <circle cx="280.0mm" cy="205.0mm" fill="black" r="5.0mm"/>
  <circle cx="280.0mm" cy="205.0mm" fill="white" r="3.5mm"/>
  <text font-size="6mm" x="60.0mm" y="260.0mm">26</text>
  <circle cx="80.0mm" cy="250.0mm" fill="black" r="10.0mm"/>
  <circle cx="80.0mm" cy="250.0mm" fill="white" r="8.5mm"/>
  <circle cx="80.0mm" cy="250.0mm" fill="black" r="7.0mm"/>
  <circle cx="80.0mm" cy="250.0mm" fill="white" r="6.0mm"/>
  <circle cx="80.0mm" cy="250.0mm" fill="black" r="4.5mm"/>
  <circle cx="80.0mm" cy="250.0mm" fill="white" r="3.5mm"/>
  <text font-size="6mm" x="100.0mm" y="260.0mm">27</text>
  <circle cx="120.0mm" cy="250.0mm" fill="black" r="10.0mm"/>
  <circle cx="120.0mm" cy="250.0mm" fill="white" r="8.5mm"/>
  <circle cx="120.0mm" cy="250.0mm" fill="black" r="7.0mm"/>
  <circle cx="120.0mm" cy="250.0mm" fill="white" r="6.0mm"/>
  <circle cx="120.0mm" cy="250.0mm" fill="black" r="4.5mm"/>
  <circle cx="120.0mm" cy="250.0mm" fill="white" r="3.0mm"/>
  <text font-size="6mm" x="140.0mm" y="260.0mm">28</text>
  <circle cx="160.0mm" cy="250.0mm" fill="black" r="10.0mm"/>
  <circle cx="160.0mm" cy="250.0mm" fill="white" r="8.5mm"/>
  <circle cx="160.0mm" cy="250.0mm" fill="black" r="7.0mm"/>
  <circle cx="160.0mm" cy="250.0mm" fill="white" r="5.5mm"/>
  <circle cx="160.0mm" cy="250.0mm" fill="black" r="4.5mm"/>
  <circle cx="160.0mm" cy="250.0mm" fill="white" r="3.5mm"/>
  <text font-size="6mm" x="180.0mm" y="260.0mm">29</text>
  <circle cx="200.0mm" cy="250.0mm" fill="black" r="10.0mm"/>
  <circle cx="200.0mm" cy="250.0mm" fill="white" r="8.5mm"/>
  <circle cx="200.0mm" cy="250.0mm" fill="black" r="7.0mm"/>
  <circle cx="200.0mm" cy="250.0mm" fill="white" r="5.5mm"/>
  <circle cx="200.0mm" cy="250.0mm" fill="black" r="4.5mm"/>
  <circle cx="200.0mm" cy="250.0mm" fill="white" r="3.0mm"/>
  <text font-size="6mm" x="220.0mm" y="260.0mm">30</text>
  <circle cx="240.0mm" cy="250.0mm" fill="black" r="10.0mm"/>
  <circle cx="240.0mm" cy="250.0mm" fill="white" r="8.5mm"/>
  <circle cx="240.0mm" cy="250.0mm" fill="black" r="7.0mm"/>
  <circle cx="240.0mm" cy="250.0mm" fill="white" r="5.5mm"/>
  <circle cx="240.0mm" cy="250.0mm" fill="black" r="4.0mm"/>
  <circle cx="240.0mm" cy="250.0mm" fill="white" r="3.0mm"/>
  <text font-size="6mm" x="140.0mm" y="305.0mm">31</text>
  <circle cx="160.0mm" cy="295.0mm" fill="black" r="10.0mm"/>
  <circle cx="160.0mm" cy="295.0mm" fill="white" r="8.5mm"/>
  <circle cx="160.0mm" cy="295.0mm" fill="black" r="7.0mm"/>
  <circle cx="160.0mm" cy="295.0mm" fill="white" r="5.5mm"/>
  <circle cx="160.0mm" cy="295.0mm" fill="black" r="4.0mm"/>
  <circle cx="160.0mm" cy="295.0mm" fill="white" r="2.5mm"/>
</svg>
